# Blender v2.79 (sub 7) OBJ File: ''
# www.blender.org
mtllib difficulty.mtl
o Text
v 5.368421 0.150000 0.000000
v 4.894737 0.150000 0.000000
v 4.894737 0.150000 -0.052632
v 4.842105 0.150000 -0.052632
v 4.842105 0.150000 -0.210526
v 5.000000 0.150000 -0.210526
v 5.000000 0.150000 -0.157895
v 5.263158 0.150000 -0.157895
v 5.263158 0.150000 -0.315789
v 4.894737 0.150000 -0.315789
v 4.894737 0.150000 -0.368421
v 4.842105 0.150000 -0.368421
v 4.842105 0.150000 -0.789474
v 5.000000 0.150000 -0.789474
v 5.000000 0.150000 -0.473684
v 5.263158 0.150000 -0.473684
v 5.263158 0.150000 -0.789474
v 5.421053 0.150000 -0.789474
v 5.421053 0.150000 -0.052632
v 5.368421 0.150000 -0.052632
v 4.578948 0.150000 0.000000
v 4.421053 0.150000 0.000000
v 4.421053 0.150000 -0.631579
v 4.210526 0.150000 -0.631579
v 4.210526 0.150000 -0.789474
v 4.789474 0.150000 -0.789474
v 4.789474 0.150000 -0.631579
v 4.578948 0.150000 -0.631579
v 4.157895 0.150000 0.000000
v 3.631579 0.150000 0.000000
v 3.631579 0.150000 -0.052632
v 3.578947 0.150000 -0.052632
v 3.578947 0.150000 -0.789474
v 3.736842 0.150000 -0.789474
v 3.736842 0.150000 -0.157895
v 4.157895 0.150000 -0.157895
v 3.473684 0.150000 0.000000
v 3.000000 0.150000 0.000000
v 3.000000 0.150000 -0.052632
v 2.947368 0.150000 -0.052632
v 2.947368 0.150000 -0.789474
v 3.105263 0.150000 -0.789474
v 3.105263 0.150000 -0.157895
v 3.368421 0.150000 -0.157895
v 3.368421 0.150000 -0.789474
v 3.526316 0.150000 -0.789474
v 3.526316 0.150000 -0.052632
v 3.473684 0.150000 -0.052632
v 2.842105 0.150000 0.000000
v 2.368421 0.150000 0.000000
v 2.368421 0.150000 -0.052632
v 2.315789 0.150000 -0.052632
v 2.315789 0.150000 -0.736842
v 2.368421 0.150000 -0.736842
v 2.368421 0.150000 -0.789474
v 2.842105 0.150000 -0.789474
v 2.842105 0.150000 -0.736842
v 2.894737 0.150000 -0.736842
v 2.894737 0.150000 -0.578947
v 2.736842 0.150000 -0.578947
v 2.736842 0.150000 -0.631579
v 2.473684 0.150000 -0.631579
v 2.473684 0.150000 -0.157895
v 2.736842 0.150000 -0.157895
v 2.736842 0.150000 -0.210526
v 2.894737 0.150000 -0.210526
v 2.894737 0.150000 -0.052632
v 2.842105 0.150000 -0.052632
v 2.263158 0.150000 0.000000
v 2.105263 0.150000 0.000000
v 2.105263 0.150000 -0.789474
v 2.263158 0.150000 -0.789474
v 1.631579 0.150000 0.000000
v 1.473684 0.150000 0.000000
v 1.473684 0.150000 -0.736842
v 1.526316 0.150000 -0.736842
v 1.526316 0.150000 -0.789474
v 2.052632 0.150000 -0.789474
v 2.052632 0.150000 -0.631579
v 1.631579 0.150000 -0.631579
v 1.631579 0.150000 -0.473684
v 1.894737 0.150000 -0.473684
v 1.894737 0.150000 -0.315789
v 1.631579 0.150000 -0.315789
v 1.000000 0.150000 0.000000
v 0.842105 0.150000 0.000000
v 0.842105 0.150000 -0.736842
v 0.894737 0.150000 -0.736842
v 0.894737 0.150000 -0.789474
v 1.421053 0.150000 -0.789474
v 1.421053 0.150000 -0.631579
v 1.000000 0.150000 -0.631579
v 1.000000 0.150000 -0.473684
v 1.263158 0.150000 -0.473684
v 1.263158 0.150000 -0.315789
v 1.000000 0.150000 -0.315789
v 0.789474 0.150000 0.000000
v 0.631579 0.150000 0.000000
v 0.631579 0.150000 -0.789474
v 0.789474 0.150000 -0.789474
v 0.157895 0.150000 -0.157895
v 0.421053 0.150000 -0.157895
v 0.421053 0.150000 -0.631579
v 0.157895 0.150000 -0.631579
v 0.526316 0.150000 0.000000
v 0.000000 0.150000 0.000000
v 0.000000 0.150000 -0.789474
v 0.526316 0.150000 -0.789474
v 0.526316 0.150000 -0.736842
v 0.578947 0.150000 -0.736842
v 0.578947 0.150000 -0.052632
v 0.526316 0.150000 -0.052632
v 5.368421 -0.150000 0.000000
v 4.894737 -0.150000 0.000000
v 4.894737 -0.150000 -0.052632
v 4.842105 -0.150000 -0.052632
v 4.842105 -0.150000 -0.210526
v 5.000000 -0.150000 -0.210526
v 5.000000 -0.150000 -0.157895
v 5.263158 -0.150000 -0.157895
v 5.263158 -0.150000 -0.315789
v 4.894737 -0.150000 -0.315789
v 4.894737 -0.150000 -0.368421
v 4.842105 -0.150000 -0.368421
v 4.842105 -0.150000 -0.789474
v 5.000000 -0.150000 -0.789474
v 5.000000 -0.150000 -0.473684
v 5.263158 -0.150000 -0.473684
v 5.263158 -0.150000 -0.789474
v 5.421053 -0.150000 -0.789474
v 5.421053 -0.150000 -0.052632
v 5.368421 -0.150000 -0.052632
v 4.578948 -0.150000 0.000000
v 4.421053 -0.150000 0.000000
v 4.421053 -0.150000 -0.631579
v 4.210526 -0.150000 -0.631579
v 4.210526 -0.150000 -0.789474
v 4.789474 -0.150000 -0.789474
v 4.789474 -0.150000 -0.631579
v 4.578948 -0.150000 -0.631579
v 4.157895 -0.150000 0.000000
v 3.631579 -0.150000 0.000000
v 3.631579 -0.150000 -0.052632
v 3.578947 -0.150000 -0.052632
v 3.578947 -0.150000 -0.789474
v 3.736842 -0.150000 -0.789474
v 3.736842 -0.150000 -0.157895
v 4.157895 -0.150000 -0.157895
v 3.473684 -0.150000 0.000000
v 3.000000 -0.150000 0.000000
v 3.000000 -0.150000 -0.052632
v 2.947368 -0.150000 -0.052632
v 2.947368 -0.150000 -0.789474
v 3.105263 -0.150000 -0.789474
v 3.105263 -0.150000 -0.157895
v 3.368421 -0.150000 -0.157895
v 3.368421 -0.150000 -0.789474
v 3.526316 -0.150000 -0.789474
v 3.526316 -0.150000 -0.052632
v 3.473684 -0.150000 -0.052632
v 2.842105 -0.150000 0.000000
v 2.368421 -0.150000 0.000000
v 2.368421 -0.150000 -0.052632
v 2.315789 -0.150000 -0.052632
v 2.315789 -0.150000 -0.736842
v 2.368421 -0.150000 -0.736842
v 2.368421 -0.150000 -0.789474
v 2.842105 -0.150000 -0.789474
v 2.842105 -0.150000 -0.736842
v 2.894737 -0.150000 -0.736842
v 2.894737 -0.150000 -0.578947
v 2.736842 -0.150000 -0.578947
v 2.736842 -0.150000 -0.631579
v 2.473684 -0.150000 -0.631579
v 2.473684 -0.150000 -0.157895
v 2.736842 -0.150000 -0.157895
v 2.736842 -0.150000 -0.210526
v 2.894737 -0.150000 -0.210526
v 2.894737 -0.150000 -0.052632
v 2.842105 -0.150000 -0.052632
v 2.263158 -0.150000 0.000000
v 2.105263 -0.150000 0.000000
v 2.105263 -0.150000 -0.789474
v 2.263158 -0.150000 -0.789474
v 1.631579 -0.150000 0.000000
v 1.473684 -0.150000 0.000000
v 1.473684 -0.150000 -0.736842
v 1.526316 -0.150000 -0.736842
v 1.526316 -0.150000 -0.789474
v 2.052632 -0.150000 -0.789474
v 2.052632 -0.150000 -0.631579
v 1.631579 -0.150000 -0.631579
v 1.631579 -0.150000 -0.473684
v 1.894737 -0.150000 -0.473684
v 1.894737 -0.150000 -0.315789
v 1.631579 -0.150000 -0.315789
v 1.000000 -0.150000 0.000000
v 0.842105 -0.150000 0.000000
v 0.842105 -0.150000 -0.736842
v 0.894737 -0.150000 -0.736842
v 0.894737 -0.150000 -0.789474
v 1.421053 -0.150000 -0.789474
v 1.421053 -0.150000 -0.631579
v 1.000000 -0.150000 -0.631579
v 1.000000 -0.150000 -0.473684
v 1.263158 -0.150000 -0.473684
v 1.263158 -0.150000 -0.315789
v 1.000000 -0.150000 -0.315789
v 0.789474 -0.150000 0.000000
v 0.631579 -0.150000 0.000000
v 0.631579 -0.150000 -0.789474
v 0.789474 -0.150000 -0.789474
v 0.157895 -0.150000 -0.157895
v 0.421053 -0.150000 -0.157895
v 0.421053 -0.150000 -0.631579
v 0.157895 -0.150000 -0.631579
v 0.526316 -0.150000 0.000000
v 0.000000 -0.150000 0.000000
v 0.000000 -0.150000 -0.789474
v 0.526316 -0.150000 -0.789474
v 0.526316 -0.150000 -0.736842
v 0.578947 -0.150000 -0.736842
v 0.578947 -0.150000 -0.052632
v 0.526316 -0.150000 -0.052632
v 0.157895 -0.150000 -0.157895
v 0.157895 0.150000 -0.157895
v 0.421053 -0.150000 -0.157895
v 0.421053 0.150000 -0.157895
v 0.421053 -0.150000 -0.631579
v 0.421053 0.150000 -0.631579
v 0.157895 -0.150000 -0.631579
v 0.157895 0.150000 -0.631579
v 0.526316 -0.150000 0.000000
v 0.526316 0.150000 0.000000
v 0.000000 -0.150000 0.000000
v 0.000000 0.150000 0.000000
v 0.000000 -0.150000 -0.789474
v 0.000000 0.150000 -0.789474
v 0.526316 -0.150000 -0.789474
v 0.526316 0.150000 -0.789474
v 0.526316 -0.150000 -0.736842
v 0.526316 0.150000 -0.736842
v 0.578947 -0.150000 -0.736842
v 0.578947 0.150000 -0.736842
v 0.578947 -0.150000 -0.052632
v 0.578947 0.150000 -0.052632
v 0.526316 -0.150000 -0.052632
v 0.526316 0.150000 -0.052632
v 0.789474 -0.150000 0.000000
v 0.789474 0.150000 0.000000
v 0.631579 -0.150000 0.000000
v 0.631579 0.150000 0.000000
v 0.631579 -0.150000 -0.789474
v 0.631579 0.150000 -0.789474
v 0.789474 -0.150000 -0.789474
v 0.789474 0.150000 -0.789474
v 1.000000 -0.150000 0.000000
v 1.000000 0.150000 0.000000
v 0.842105 -0.150000 0.000000
v 0.842105 0.150000 0.000000
v 0.842105 -0.150000 -0.736842
v 0.842105 0.150000 -0.736842
v 0.894737 -0.150000 -0.736842
v 0.894737 0.150000 -0.736842
v 0.894737 -0.150000 -0.789474
v 0.894737 0.150000 -0.789474
v 1.421053 -0.150000 -0.789474
v 1.421053 0.150000 -0.789474
v 1.421053 -0.150000 -0.631579
v 1.421053 0.150000 -0.631579
v 1.000000 -0.150000 -0.631579
v 1.000000 0.150000 -0.631579
v 1.000000 -0.150000 -0.473684
v 1.000000 0.150000 -0.473684
v 1.263158 -0.150000 -0.473684
v 1.263158 0.150000 -0.473684
v 1.263158 -0.150000 -0.315789
v 1.263158 0.150000 -0.315789
v 1.000000 -0.150000 -0.315789
v 1.000000 0.150000 -0.315789
v 1.631579 -0.150000 0.000000
v 1.631579 0.150000 0.000000
v 1.473684 -0.150000 0.000000
v 1.473684 0.150000 0.000000
v 1.473684 -0.150000 -0.736842
v 1.473684 0.150000 -0.736842
v 1.526316 -0.150000 -0.736842
v 1.526316 0.150000 -0.736842
v 1.526316 -0.150000 -0.789474
v 1.526316 0.150000 -0.789474
v 2.052632 -0.150000 -0.789474
v 2.052632 0.150000 -0.789474
v 2.052632 -0.150000 -0.631579
v 2.052632 0.150000 -0.631579
v 1.631579 -0.150000 -0.631579
v 1.631579 0.150000 -0.631579
v 1.631579 -0.150000 -0.473684
v 1.631579 0.150000 -0.473684
v 1.894737 -0.150000 -0.473684
v 1.894737 0.150000 -0.473684
v 1.894737 -0.150000 -0.315789
v 1.894737 0.150000 -0.315789
v 1.631579 -0.150000 -0.315789
v 1.631579 0.150000 -0.315789
v 2.263158 -0.150000 0.000000
v 2.263158 0.150000 0.000000
v 2.105263 -0.150000 0.000000
v 2.105263 0.150000 0.000000
v 2.105263 -0.150000 -0.789474
v 2.105263 0.150000 -0.789474
v 2.263158 -0.150000 -0.789474
v 2.263158 0.150000 -0.789474
v 2.842105 -0.150000 0.000000
v 2.842105 0.150000 0.000000
v 2.368421 -0.150000 0.000000
v 2.368421 0.150000 0.000000
v 2.368421 -0.150000 -0.052632
v 2.368421 0.150000 -0.052632
v 2.315789 -0.150000 -0.052632
v 2.315789 0.150000 -0.052632
v 2.315789 -0.150000 -0.736842
v 2.315789 0.150000 -0.736842
v 2.368421 -0.150000 -0.736842
v 2.368421 0.150000 -0.736842
v 2.368421 -0.150000 -0.789474
v 2.368421 0.150000 -0.789474
v 2.842105 -0.150000 -0.789474
v 2.842105 0.150000 -0.789474
v 2.842105 -0.150000 -0.736842
v 2.842105 0.150000 -0.736842
v 2.894737 -0.150000 -0.736842
v 2.894737 0.150000 -0.736842
v 2.894737 -0.150000 -0.578947
v 2.894737 0.150000 -0.578947
v 2.736842 -0.150000 -0.578947
v 2.736842 0.150000 -0.578947
v 2.736842 -0.150000 -0.631579
v 2.736842 0.150000 -0.631579
v 2.473684 -0.150000 -0.631579
v 2.473684 0.150000 -0.631579
v 2.473684 -0.150000 -0.157895
v 2.473684 0.150000 -0.157895
v 2.736842 -0.150000 -0.157895
v 2.736842 0.150000 -0.157895
v 2.736842 -0.150000 -0.210526
v 2.736842 0.150000 -0.210526
v 2.894737 -0.150000 -0.210526
v 2.894737 0.150000 -0.210526
v 2.894737 -0.150000 -0.052632
v 2.894737 0.150000 -0.052632
v 2.842105 -0.150000 -0.052632
v 2.842105 0.150000 -0.052632
v 3.473684 -0.150000 0.000000
v 3.473684 0.150000 0.000000
v 3.000000 -0.150000 0.000000
v 3.000000 0.150000 0.000000
v 3.000000 -0.150000 -0.052632
v 3.000000 0.150000 -0.052632
v 2.947368 -0.150000 -0.052632
v 2.947368 0.150000 -0.052632
v 2.947368 -0.150000 -0.789474
v 2.947368 0.150000 -0.789474
v 3.105263 -0.150000 -0.789474
v 3.105263 0.150000 -0.789474
v 3.105263 -0.150000 -0.157895
v 3.105263 0.150000 -0.157895
v 3.368421 -0.150000 -0.157895
v 3.368421 0.150000 -0.157895
v 3.368421 -0.150000 -0.789474
v 3.368421 0.150000 -0.789474
v 3.526316 -0.150000 -0.789474
v 3.526316 0.150000 -0.789474
v 3.526316 -0.150000 -0.052632
v 3.526316 0.150000 -0.052632
v 3.473684 -0.150000 -0.052632
v 3.473684 0.150000 -0.052632
v 4.157895 -0.150000 0.000000
v 4.157895 0.150000 0.000000
v 3.631579 -0.150000 0.000000
v 3.631579 0.150000 0.000000
v 3.631579 -0.150000 -0.052632
v 3.631579 0.150000 -0.052632
v 3.578947 -0.150000 -0.052632
v 3.578947 0.150000 -0.052632
v 3.578947 -0.150000 -0.789474
v 3.578947 0.150000 -0.789474
v 3.736842 -0.150000 -0.789474
v 3.736842 0.150000 -0.789474
v 3.736842 -0.150000 -0.157895
v 3.736842 0.150000 -0.157895
v 4.157895 -0.150000 -0.157895
v 4.157895 0.150000 -0.157895
v 4.578948 -0.150000 0.000000
v 4.578948 0.150000 0.000000
v 4.421053 -0.150000 0.000000
v 4.421053 0.150000 0.000000
v 4.421053 -0.150000 -0.631579
v 4.421053 0.150000 -0.631579
v 4.210526 -0.150000 -0.631579
v 4.210526 0.150000 -0.631579
v 4.210526 -0.150000 -0.789474
v 4.210526 0.150000 -0.789474
v 4.789474 -0.150000 -0.789474
v 4.789474 0.150000 -0.789474
v 4.789474 -0.150000 -0.631579
v 4.789474 0.150000 -0.631579
v 4.578948 -0.150000 -0.631579
v 4.578948 0.150000 -0.631579
v 5.368421 -0.150000 0.000000
v 5.368421 0.150000 0.000000
v 4.894737 -0.150000 0.000000
v 4.894737 0.150000 0.000000
v 4.894737 -0.150000 -0.052632
v 4.894737 0.150000 -0.052632
v 4.842105 -0.150000 -0.052632
v 4.842105 0.150000 -0.052632
v 4.842105 -0.150000 -0.210526
v 4.842105 0.150000 -0.210526
v 5.000000 -0.150000 -0.210526
v 5.000000 0.150000 -0.210526
v 5.000000 -0.150000 -0.157895
v 5.000000 0.150000 -0.157895
v 5.263158 -0.150000 -0.157895
v 5.263158 0.150000 -0.157895
v 5.263158 -0.150000 -0.315789
v 5.263158 0.150000 -0.315789
v 4.894737 -0.150000 -0.315789
v 4.894737 0.150000 -0.315789
v 4.894737 -0.150000 -0.368421
v 4.894737 0.150000 -0.368421
v 4.842105 -0.150000 -0.368421
v 4.842105 0.150000 -0.368421
v 4.842105 -0.150000 -0.789474
v 4.842105 0.150000 -0.789474
v 5.000000 -0.150000 -0.789474
v 5.000000 0.150000 -0.789474
v 5.000000 -0.150000 -0.473684
v 5.000000 0.150000 -0.473684
v 5.263158 -0.150000 -0.473684
v 5.263158 0.150000 -0.473684
v 5.263158 -0.150000 -0.789474
v 5.263158 0.150000 -0.789474
v 5.421053 -0.150000 -0.789474
v 5.421053 0.150000 -0.789474
v 5.421053 -0.150000 -0.052632
v 5.421053 0.150000 -0.052632
v 5.368421 -0.150000 -0.052632
v 5.368421 0.150000 -0.052632
vn 0.0000 1.0000 0.0000
vn 0.0000 0.0000 1.0000
vn 0.0000 0.0000 -1.0000
vn 0.0000 -1.0000 0.0000
vn -0.7071 0.0000 -0.7071
vn 0.7071 0.0000 -0.7071
vn -0.7071 0.0000 0.7071
vn 0.7071 0.0000 0.7071
usemtl None
s off
f 12//1 14//1 13//1
f 12//1 15//1 14//1
f 16//1 18//1 17//1
f 16//1 19//1 18//1
f 12//1 16//1 15//1
f 12//1 11//1 16//1
f 11//1 9//1 16//1
f 9//1 19//1 16//1
f 10//1 9//1 11//1
f 8//1 19//1 9//1
f 4//1 6//1 5//1
f 4//1 7//1 6//1
f 4//1 8//1 7//1
f 4//1 19//1 8//1
f 3//2 19//2 4//2
f 2//1 20//1 3//1
f 20//2 19//2 3//2
f 2//1 1//1 20//1
f 24//1 26//1 25//1
f 24//1 27//1 26//1
f 23//2 27//2 24//2
f 22//1 28//1 23//1
f 28//2 27//2 23//2
f 22//1 21//1 28//1
f 32//1 34//1 33//1
f 32//1 35//1 34//1
f 32//1 36//1 35//1
f 32//1 31//1 36//1
f 31//1 29//1 36//1
f 30//1 29//1 31//1
f 40//1 42//1 41//1
f 40//1 43//1 42//1
f 44//1 46//1 45//1
f 44//1 47//1 46//1
f 40//1 44//1 43//1
f 40//1 47//1 44//1
f 39//3 47//3 40//3
f 38//1 48//1 39//1
f 48//2 47//2 39//2
f 38//1 37//1 48//1
f 54//1 56//1 55//1
f 54//1 57//1 56//1
f 52//1 54//1 53//1
f 52//1 62//1 54//1
f 62//1 57//1 54//1
f 62//1 58//1 57//1
f 62//1 61//1 58//1
f 61//1 59//1 58//1
f 52//1 63//1 62//1
f 60//1 59//1 61//1
f 64//1 66//1 65//1
f 64//1 67//1 66//1
f 52//1 64//1 63//1
f 52//1 67//1 64//1
f 51//3 67//3 52//3
f 50//1 68//1 51//1
f 68//2 67//2 51//2
f 50//1 49//1 68//1
f 70//1 72//1 71//1
f 70//1 69//1 72//1
f 76//1 78//1 77//1
f 76//1 79//1 78//1
f 74//1 76//1 75//1
f 74//1 80//1 76//1
f 80//1 79//1 76//1
f 74//1 81//1 80//1
f 74//1 84//1 81//1
f 84//1 82//1 81//1
f 84//1 83//1 82//1
f 74//1 73//1 84//1
f 88//1 90//1 89//1
f 88//1 91//1 90//1
f 86//1 88//1 87//1
f 86//1 92//1 88//1
f 92//1 91//1 88//1
f 86//1 93//1 92//1
f 86//1 96//1 93//1
f 96//1 94//1 93//1
f 96//1 95//1 94//1
f 86//1 85//1 96//1
f 98//1 100//1 99//1
f 98//1 97//1 100//1
f 106//1 104//1 107//1
f 104//1 108//1 107//1
f 104//1 109//1 108//1
f 104//1 110//1 109//1
f 104//1 103//1 110//1
f 103//1 111//1 110//1
f 106//1 101//1 104//1
f 102//1 111//1 103//1
f 106//1 102//1 101//1
f 106//1 112//1 102//1
f 112//1 111//1 102//1
f 106//1 105//1 112//1
f 126//4 124//4 125//4
f 127//4 124//4 126//4
f 130//4 128//4 129//4
f 131//4 128//4 130//4
f 128//4 124//4 127//4
f 123//4 124//4 128//4
f 121//4 123//4 128//4
f 131//4 121//4 128//4
f 121//4 122//4 123//4
f 131//4 120//4 121//4
f 118//4 116//4 117//4
f 119//4 116//4 118//4
f 120//4 116//4 119//4
f 131//4 116//4 120//4
f 131//2 115//2 116//2
f 132//4 114//4 115//4
f 131//2 132//2 115//2
f 113//4 114//4 132//4
f 138//4 136//4 137//4
f 139//4 136//4 138//4
f 139//3 135//3 136//3
f 140//4 134//4 135//4
f 139//2 140//2 135//2
f 133//4 134//4 140//4
f 146//4 144//4 145//4
f 147//4 144//4 146//4
f 148//4 144//4 147//4
f 143//4 144//4 148//4
f 141//4 143//4 148//4
f 141//4 142//4 143//4
f 154//4 152//4 153//4
f 155//4 152//4 154//4
f 158//4 156//4 157//4
f 159//4 156//4 158//4
f 156//4 152//4 155//4
f 159//4 152//4 156//4
f 159//3 151//3 152//3
f 160//4 150//4 151//4
f 159//2 160//2 151//2
f 149//4 150//4 160//4
f 168//4 166//4 167//4
f 169//4 166//4 168//4
f 166//4 164//4 165//4
f 174//4 164//4 166//4
f 169//4 174//4 166//4
f 170//4 174//4 169//4
f 173//4 174//4 170//4
f 171//4 173//4 170//4
f 175//4 164//4 174//4
f 171//4 172//4 173//4
f 178//4 176//4 177//4
f 179//4 176//4 178//4
f 176//4 164//4 175//4
f 179//4 164//4 176//4
f 179//3 163//3 164//3
f 180//4 162//4 163//4
f 179//2 180//2 163//2
f 161//4 162//4 180//4
f 184//4 182//4 183//4
f 181//4 182//4 184//4
f 190//4 188//4 189//4
f 191//4 188//4 190//4
f 188//4 186//4 187//4
f 192//4 186//4 188//4
f 191//4 192//4 188//4
f 193//4 186//4 192//4
f 196//4 186//4 193//4
f 194//4 196//4 193//4
f 195//4 196//4 194//4
f 185//4 186//4 196//4
f 202//4 200//4 201//4
f 203//4 200//4 202//4
f 200//4 198//4 199//4
f 204//4 198//4 200//4
f 203//4 204//4 200//4
f 205//4 198//4 204//4
f 208//4 198//4 205//4
f 206//4 208//4 205//4
f 207//4 208//4 206//4
f 197//4 198//4 208//4
f 212//4 210//4 211//4
f 209//4 210//4 212//4
f 216//4 218//4 219//4
f 220//4 216//4 219//4
f 221//4 216//4 220//4
f 222//4 216//4 221//4
f 215//4 216//4 222//4
f 223//4 215//4 222//4
f 213//4 218//4 216//4
f 223//4 214//4 215//4
f 214//4 218//4 213//4
f 224//4 218//4 214//4
f 223//4 224//4 214//4
f 217//4 218//4 224//4
s 1
f 228//5 225//6 226//6
f 230//7 227//5 228//5
f 232//8 229//7 230//7
f 226//6 231//8 232//8
f 236//7 233//8 234//8
f 238//5 235//7 236//7
f 240//6 237//5 238//5
f 242//6 239//6 240//6
f 244//6 241//6 242//6
f 246//8 243//6 244//6
f 248//8 245//8 246//8
f 234//8 247//8 248//8
f 252//7 249//8 250//8
f 254//5 251//7 252//7
f 256//6 253//5 254//5
f 250//8 255//6 256//6
f 260//7 257//8 258//8
f 262//5 259//7 260//7
f 264//5 261//5 262//5
f 266//5 263//5 264//5
f 268//6 265//5 266//5
f 270//8 267//6 268//6
f 272//8 269//8 270//8
f 274//6 271//8 272//8
f 276//6 273//6 274//6
f 278//8 275//6 276//6
f 280//8 277//8 278//8
f 258//8 279//8 280//8
f 284//7 281//8 282//8
f 286//5 283//7 284//7
f 288//5 285//5 286//5
f 290//5 287//5 288//5
f 292//6 289//5 290//5
f 294//8 291//6 292//6
f 296//8 293//8 294//8
f 298//6 295//8 296//8
f 300//6 297//6 298//6
f 302//8 299//6 300//6
f 304//8 301//8 302//8
f 282//8 303//8 304//8
f 308//7 305//8 306//8
f 310//5 307//7 308//7
f 312//6 309//5 310//5
f 306//8 311//6 312//6
f 316//7 313//8 314//8
f 318//7 315//7 316//7
f 320//7 317//7 318//7
f 322//5 319//7 320//7
f 324//5 321//5 322//5
f 326//5 323//5 324//5
f 328//6 325//5 326//5
f 330//6 327//6 328//6
f 332//6 329//6 330//6
f 334//8 331//6 332//6
f 336//7 333//8 334//8
f 338//7 335//7 336//7
f 340//8 337//7 338//7
f 342//6 339//8 340//8
f 344//5 341//6 342//6
f 346//5 343//5 344//5
f 348//6 345//5 346//5
f 350//8 347//6 348//6
f 352//8 349//8 350//8
f 314//8 351//8 352//8
f 356//7 353//8 354//8
f 358//7 355//7 356//7
f 360//7 357//7 358//7
f 362//5 359//7 360//7
f 364//6 361//5 362//5
f 366//6 363//6 364//6
f 368//5 365//6 366//6
f 370//5 367//5 368//5
f 372//6 369//5 370//5
f 374//8 371//6 372//6
f 376//8 373//8 374//8
f 354//8 375//8 376//8
f 380//7 377//8 378//8
f 382//7 379//7 380//7
f 384//7 381//7 382//7
f 386//5 383//7 384//7
f 388//6 385//5 386//5
f 390//6 387//6 388//6
f 392//6 389//6 390//6
f 378//8 391//6 392//6
f 396//7 393//8 394//8
f 398//7 395//7 396//7
f 400//7 397//7 398//7
f 402//5 399//7 400//7
f 404//6 401//5 402//5
f 406//8 403//6 404//6
f 408//8 405//8 406//8
f 394//8 407//8 408//8
f 412//7 409//8 410//8
f 414//7 411//7 412//7
f 416//7 413//7 414//7
f 418//5 415//7 416//7
f 420//6 417//5 418//5
f 422//6 419//6 420//6
f 424//5 421//6 422//6
f 426//7 423//5 424//5
f 428//7 425//7 426//7
f 430//7 427//7 428//7
f 432//7 429//7 430//7
f 434//5 431//7 432//7
f 436//6 433//5 434//5
f 438//6 435//6 436//6
f 440//5 437//6 438//6
f 442//5 439//5 440//5
f 444//6 441//5 442//5
f 446//8 443//6 444//6
f 448//8 445//8 446//8
f 410//8 447//8 448//8
f 228//5 227//5 225//6
f 230//7 229//7 227//5
f 232//8 231//8 229//7
f 226//6 225//6 231//8
f 236//7 235//7 233//8
f 238//5 237//5 235//7
f 240//6 239//6 237//5
f 242//6 241//6 239//6
f 244//6 243//6 241//6
f 246//8 245//8 243//6
f 248//8 247//8 245//8
f 234//8 233//8 247//8
f 252//7 251//7 249//8
f 254//5 253//5 251//7
f 256//6 255//6 253//5
f 250//8 249//8 255//6
f 260//7 259//7 257//8
f 262//5 261//5 259//7
f 264//5 263//5 261//5
f 266//5 265//5 263//5
f 268//6 267//6 265//5
f 270//8 269//8 267//6
f 272//8 271//8 269//8
f 274//6 273//6 271//8
f 276//6 275//6 273//6
f 278//8 277//8 275//6
f 280//8 279//8 277//8
f 258//8 257//8 279//8
f 284//7 283//7 281//8
f 286//5 285//5 283//7
f 288//5 287//5 285//5
f 290//5 289//5 287//5
f 292//6 291//6 289//5
f 294//8 293//8 291//6
f 296//8 295//8 293//8
f 298//6 297//6 295//8
f 300//6 299//6 297//6
f 302//8 301//8 299//6
f 304//8 303//8 301//8
f 282//8 281//8 303//8
f 308//7 307//7 305//8
f 310//5 309//5 307//7
f 312//6 311//6 309//5
f 306//8 305//8 311//6
f 316//7 315//7 313//8
f 318//7 317//7 315//7
f 320//7 319//7 317//7
f 322//5 321//5 319//7
f 324//5 323//5 321//5
f 326//5 325//5 323//5
f 328//6 327//6 325//5
f 330//6 329//6 327//6
f 332//6 331//6 329//6
f 334//8 333//8 331//6
f 336//7 335//7 333//8
f 338//7 337//7 335//7
f 340//8 339//8 337//7
f 342//6 341//6 339//8
f 344//5 343//5 341//6
f 346//5 345//5 343//5
f 348//6 347//6 345//5
f 350//8 349//8 347//6
f 352//8 351//8 349//8
f 314//8 313//8 351//8
f 356//7 355//7 353//8
f 358//7 357//7 355//7
f 360//7 359//7 357//7
f 362//5 361//5 359//7
f 364//6 363//6 361//5
f 366//6 365//6 363//6
f 368//5 367//5 365//6
f 370//5 369//5 367//5
f 372//6 371//6 369//5
f 374//8 373//8 371//6
f 376//8 375//8 373//8
f 354//8 353//8 375//8
f 380//7 379//7 377//8
f 382//7 381//7 379//7
f 384//7 383//7 381//7
f 386//5 385//5 383//7
f 388//6 387//6 385//5
f 390//6 389//6 387//6
f 392//6 391//6 389//6
f 378//8 377//8 391//6
f 396//7 395//7 393//8
f 398//7 397//7 395//7
f 400//7 399//7 397//7
f 402//5 401//5 399//7
f 404//6 403//6 401//5
f 406//8 405//8 403//6
f 408//8 407//8 405//8
f 394//8 393//8 407//8
f 412//7 411//7 409//8
f 414//7 413//7 411//7
f 416//7 415//7 413//7
f 418//5 417//5 415//7
f 420//6 419//6 417//5
f 422//6 421//6 419//6
f 424//5 423//5 421//6
f 426//7 425//7 423//5
f 428//7 427//7 425//7
f 430//7 429//7 427//7
f 432//7 431//7 429//7
f 434//5 433//5 431//7
f 436//6 435//6 433//5
f 438//6 437//6 435//6
f 440//5 439//5 437//6
f 442//5 441//5 439//5
f 444//6 443//6 441//5
f 446//8 445//8 443//6
f 448//8 447//8 445//8
f 410//8 409//8 447//8
