# Blender v2.78 (sub 0) OBJ File: ''
# www.blender.org
mtllib num_7.mtl
o Text
v 0.368421 0.150000 0.000000
v 0.210526 0.150000 0.000000
v 0.210526 0.150000 -0.368421
v 0.263158 0.150000 -0.368421
v 0.263158 0.150000 -0.421053
v 0.315789 0.150000 -0.421053
v 0.315789 0.150000 -0.526316
v 0.368421 0.150000 -0.526316
v 0.368421 0.150000 -0.578947
v 0.421053 0.150000 -0.578947
v 0.421053 0.150000 -0.631579
v 0.000000 0.150000 -0.631579
v 0.000000 0.150000 -0.789474
v 0.578947 0.150000 -0.789474
v 0.578947 0.150000 -0.526316
v 0.526316 0.150000 -0.526316
v 0.526316 0.150000 -0.473684
v 0.473684 0.150000 -0.473684
v 0.473684 0.150000 -0.368421
v 0.421053 0.150000 -0.368421
v 0.421053 0.150000 -0.315789
v 0.368421 0.150000 -0.315789
v 0.368421 -0.150000 0.000000
v 0.210526 -0.150000 0.000000
v 0.210526 -0.150000 -0.368421
v 0.263158 -0.150000 -0.368421
v 0.263158 -0.150000 -0.421053
v 0.315789 -0.150000 -0.421053
v 0.315789 -0.150000 -0.526316
v 0.368421 -0.150000 -0.526316
v 0.368421 -0.150000 -0.578947
v 0.421053 -0.150000 -0.578947
v 0.421053 -0.150000 -0.631579
v 0.000000 -0.150000 -0.631579
v 0.000000 -0.150000 -0.789474
v 0.578947 -0.150000 -0.789474
v 0.578947 -0.150000 -0.526316
v 0.526316 -0.150000 -0.526316
v 0.526316 -0.150000 -0.473684
v 0.473684 -0.150000 -0.473684
v 0.473684 -0.150000 -0.368421
v 0.421053 -0.150000 -0.368421
v 0.421053 -0.150000 -0.315789
v 0.368421 -0.150000 -0.315789
v 0.368421 -0.150000 0.000000
v 0.368421 0.150000 0.000000
v 0.210526 -0.150000 0.000000
v 0.210526 0.150000 0.000000
v 0.210526 -0.150000 -0.368421
v 0.210526 0.150000 -0.368421
v 0.263158 -0.150000 -0.368421
v 0.263158 0.150000 -0.368421
v 0.263158 -0.150000 -0.421053
v 0.263158 0.150000 -0.421053
v 0.315789 -0.150000 -0.421053
v 0.315789 0.150000 -0.421053
v 0.315789 -0.150000 -0.526316
v 0.315789 0.150000 -0.526316
v 0.368421 -0.150000 -0.526316
v 0.368421 0.150000 -0.526316
v 0.368421 -0.150000 -0.578947
v 0.368421 0.150000 -0.578947
v 0.421053 -0.150000 -0.578947
v 0.421053 0.150000 -0.578947
v 0.421053 -0.150000 -0.631579
v 0.421053 0.150000 -0.631579
v 0.000000 -0.150000 -0.631579
v 0.000000 0.150000 -0.631579
v 0.000000 -0.150000 -0.789474
v 0.000000 0.150000 -0.789474
v 0.578947 -0.150000 -0.789474
v 0.578947 0.150000 -0.789474
v 0.578947 -0.150000 -0.526316
v 0.578947 0.150000 -0.526316
v 0.526316 -0.150000 -0.526316
v 0.526316 0.150000 -0.526316
v 0.526316 -0.150000 -0.473684
v 0.526316 0.150000 -0.473684
v 0.473684 -0.150000 -0.473684
v 0.473684 0.150000 -0.473684
v 0.473684 -0.150000 -0.368421
v 0.473684 0.150000 -0.368421
v 0.421053 -0.150000 -0.368421
v 0.421053 0.150000 -0.368421
v 0.421053 -0.150000 -0.315789
v 0.421053 0.150000 -0.315789
v 0.368421 -0.150000 -0.315789
v 0.368421 0.150000 -0.315789
vn 0.0000 1.0000 0.0000
vn 0.0000 0.0000 1.0000
vn 0.0000 -1.0000 0.0000
vn -0.7071 0.0000 0.7071
vn 0.7071 0.0000 0.7071
vn -0.7071 0.0000 -0.7071
vn 0.7071 0.0000 -0.7071
usemtl None
s off
f 12//1 14//1 13//1
f 12//1 11//1 14//1
f 11//1 15//1 14//1
f 10//1 15//1 11//1
f 8//1 10//1 9//1
f 8//1 15//1 10//1
f 6//1 8//1 7//1
f 6//1 16//1 8//1
f 16//2 15//2 8//2
f 6//1 18//1 16//1
f 18//1 17//1 16//1
f 6//1 19//1 18//1
f 4//1 6//1 5//1
f 4//1 19//1 6//1
f 2//1 4//1 3//1
f 2//1 22//1 4//1
f 22//1 20//1 4//1
f 20//2 19//2 4//2
f 22//1 21//1 20//1
f 2//1 1//1 22//1
f 36//3 34//3 35//3
f 33//3 34//3 36//3
f 37//3 33//3 36//3
f 37//3 32//3 33//3
f 32//3 30//3 31//3
f 37//3 30//3 32//3
f 30//3 28//3 29//3
f 38//3 28//3 30//3
f 37//2 38//2 30//2
f 40//3 28//3 38//3
f 39//3 40//3 38//3
f 41//3 28//3 40//3
f 28//3 26//3 27//3
f 41//3 26//3 28//3
f 26//3 24//3 25//3
f 44//3 24//3 26//3
f 42//3 44//3 26//3
f 41//2 42//2 26//2
f 43//3 44//3 42//3
f 23//3 24//3 44//3
s 1
f 48//4 45//5 46//5
f 50//6 47//4 48//4
f 52//6 49//6 50//6
f 54//6 51//6 52//6
f 56//6 53//6 54//6
f 58//6 55//6 56//6
f 60//6 57//6 58//6
f 62//6 59//6 60//6
f 64//6 61//6 62//6
f 66//4 63//6 64//6
f 68//4 65//4 66//4
f 70//6 67//4 68//4
f 72//7 69//6 70//6
f 74//5 71//7 72//7
f 76//5 73//5 74//5
f 78//5 75//5 76//5
f 80//5 77//5 78//5
f 82//5 79//5 80//5
f 84//5 81//5 82//5
f 86//5 83//5 84//5
f 88//5 85//5 86//5
f 46//5 87//5 88//5
f 48//4 47//4 45//5
f 50//6 49//6 47//4
f 52//6 51//6 49//6
f 54//6 53//6 51//6
f 56//6 55//6 53//6
f 58//6 57//6 55//6
f 60//6 59//6 57//6
f 62//6 61//6 59//6
f 64//6 63//6 61//6
f 66//4 65//4 63//6
f 68//4 67//4 65//4
f 70//6 69//6 67//4
f 72//7 71//7 69//6
f 74//5 73//5 71//7
f 76//5 75//5 73//5
f 78//5 77//5 75//5
f 80//5 79//5 77//5
f 82//5 81//5 79//5
f 84//5 83//5 81//5
f 86//5 85//5 83//5
f 88//5 87//5 85//5
f 46//5 45//5 87//5
