# Blender v2.78 (sub 0) OBJ File: ''
# www.blender.org
mtllib num_8.mtl
o Text
v 0.157895 0.150000 -0.157895
v 0.421053 0.150000 -0.157895
v 0.421053 0.150000 -0.315789
v 0.157895 0.150000 -0.315789
v 0.157895 0.150000 -0.473684
v 0.421053 0.150000 -0.473684
v 0.421053 0.150000 -0.631579
v 0.157895 0.150000 -0.631579
v 0.526316 0.150000 0.000000
v 0.052632 0.150000 0.000000
v 0.052632 0.150000 -0.052632
v 0.000000 0.150000 -0.052632
v 0.000000 0.150000 -0.368421
v 0.052632 0.150000 -0.368421
v 0.052632 0.150000 -0.421053
v 0.000000 0.150000 -0.421053
v 0.000000 0.150000 -0.736842
v 0.052632 0.150000 -0.736842
v 0.052632 0.150000 -0.789474
v 0.526316 0.150000 -0.789474
v 0.526316 0.150000 -0.736842
v 0.578947 0.150000 -0.736842
v 0.578947 0.150000 -0.421053
v 0.526316 0.150000 -0.421053
v 0.526316 0.150000 -0.368421
v 0.578947 0.150000 -0.368421
v 0.578947 0.150000 -0.052632
v 0.526316 0.150000 -0.052632
v 0.157895 -0.150000 -0.157895
v 0.421053 -0.150000 -0.157895
v 0.421053 -0.150000 -0.315789
v 0.157895 -0.150000 -0.315789
v 0.157895 -0.150000 -0.473684
v 0.421053 -0.150000 -0.473684
v 0.421053 -0.150000 -0.631579
v 0.157895 -0.150000 -0.631579
v 0.526316 -0.150000 0.000000
v 0.052632 -0.150000 0.000000
v 0.052632 -0.150000 -0.052632
v 0.000000 -0.150000 -0.052632
v 0.000000 -0.150000 -0.368421
v 0.052632 -0.150000 -0.368421
v 0.052632 -0.150000 -0.421053
v 0.000000 -0.150000 -0.421053
v 0.000000 -0.150000 -0.736842
v 0.052632 -0.150000 -0.736842
v 0.052632 -0.150000 -0.789474
v 0.526316 -0.150000 -0.789474
v 0.526316 -0.150000 -0.736842
v 0.578947 -0.150000 -0.736842
v 0.578947 -0.150000 -0.421053
v 0.526316 -0.150000 -0.421053
v 0.526316 -0.150000 -0.368421
v 0.578947 -0.150000 -0.368421
v 0.578947 -0.150000 -0.052632
v 0.526316 -0.150000 -0.052632
v 0.157895 -0.150000 -0.157895
v 0.157895 0.150000 -0.157895
v 0.421053 -0.150000 -0.157895
v 0.421053 0.150000 -0.157895
v 0.421053 -0.150000 -0.315789
v 0.421053 0.150000 -0.315789
v 0.157895 -0.150000 -0.315789
v 0.157895 0.150000 -0.315789
v 0.157895 -0.150000 -0.473684
v 0.157895 0.150000 -0.473684
v 0.421053 -0.150000 -0.473684
v 0.421053 0.150000 -0.473684
v 0.421053 -0.150000 -0.631579
v 0.421053 0.150000 -0.631579
v 0.157895 -0.150000 -0.631579
v 0.157895 0.150000 -0.631579
v 0.526316 -0.150000 0.000000
v 0.526316 0.150000 0.000000
v 0.052632 -0.150000 0.000000
v 0.052632 0.150000 0.000000
v 0.052632 -0.150000 -0.052632
v 0.052632 0.150000 -0.052632
v 0.000000 -0.150000 -0.052632
v 0.000000 0.150000 -0.052632
v 0.000000 -0.150000 -0.368421
v 0.000000 0.150000 -0.368421
v 0.052632 -0.150000 -0.368421
v 0.052632 0.150000 -0.368421
v 0.052632 -0.150000 -0.421053
v 0.052632 0.150000 -0.421053
v 0.000000 -0.150000 -0.421053
v 0.000000 0.150000 -0.421053
v 0.000000 -0.150000 -0.736842
v 0.000000 0.150000 -0.736842
v 0.052632 -0.150000 -0.736842
v 0.052632 0.150000 -0.736842
v 0.052632 -0.150000 -0.789474
v 0.052632 0.150000 -0.789474
v 0.526316 -0.150000 -0.789474
v 0.526316 0.150000 -0.789474
v 0.526316 -0.150000 -0.736842
v 0.526316 0.150000 -0.736842
v 0.578947 -0.150000 -0.736842
v 0.578947 0.150000 -0.736842
v 0.578947 -0.150000 -0.421053
v 0.578947 0.150000 -0.421053
v 0.526316 -0.150000 -0.421053
v 0.526316 0.150000 -0.421053
v 0.526316 -0.150000 -0.368421
v 0.526316 0.150000 -0.368421
v 0.578947 -0.150000 -0.368421
v 0.578947 0.150000 -0.368421
v 0.578947 -0.150000 -0.052632
v 0.578947 0.150000 -0.052632
v 0.526316 -0.150000 -0.052632
v 0.526316 0.150000 -0.052632
vn 0.0000 1.0000 0.0000
vn 0.0000 0.0000 -1.0000
vn 0.0000 0.0000 1.0000
vn 0.0000 -1.0000 0.0000
vn -0.7071 0.0000 -0.7071
vn 0.7071 0.0000 -0.7071
vn -0.7071 0.0000 0.7071
vn 0.7071 0.0000 0.7071
usemtl None
s off
f 18//1 20//1 19//1
f 18//1 21//1 20//1
f 16//1 18//1 17//1
f 16//1 8//1 18//1
f 8//1 21//1 18//1
f 8//1 22//1 21//1
f 8//1 7//1 22//1
f 7//1 23//1 22//1
f 16//1 5//1 8//1
f 6//1 23//1 7//1
f 16//1 6//1 5//1
f 16//1 23//1 6//1
f 15//2 23//2 16//2
f 14//1 24//1 15//1
f 24//3 23//3 15//3
f 14//1 25//1 24//1
f 12//1 14//1 13//1
f 12//1 4//1 14//1
f 4//1 25//1 14//1
f 4//1 26//1 25//1
f 4//1 3//1 26//1
f 3//1 27//1 26//1
f 12//1 1//1 4//1
f 2//1 27//1 3//1
f 12//1 2//1 1//1
f 12//1 27//1 2//1
f 11//2 27//2 12//2
f 10//1 28//1 11//1
f 28//3 27//3 11//3
f 10//1 9//1 28//1
f 48//4 46//4 47//4
f 49//4 46//4 48//4
f 46//4 44//4 45//4
f 36//4 44//4 46//4
f 49//4 36//4 46//4
f 50//4 36//4 49//4
f 35//4 36//4 50//4
f 51//4 35//4 50//4
f 33//4 44//4 36//4
f 51//4 34//4 35//4
f 34//4 44//4 33//4
f 51//4 44//4 34//4
f 51//2 43//2 44//2
f 52//4 42//4 43//4
f 51//3 52//3 43//3
f 53//4 42//4 52//4
f 42//4 40//4 41//4
f 32//4 40//4 42//4
f 53//4 32//4 42//4
f 54//4 32//4 53//4
f 31//4 32//4 54//4
f 55//4 31//4 54//4
f 29//4 40//4 32//4
f 55//4 30//4 31//4
f 30//4 40//4 29//4
f 55//4 40//4 30//4
f 55//2 39//2 40//2
f 56//4 38//4 39//4
f 55//3 56//3 39//3
f 37//4 38//4 56//4
s 1
f 60//5 57//6 58//6
f 62//7 59//5 60//5
f 64//8 61//7 62//7
f 58//6 63//8 64//8
f 68//5 65//6 66//6
f 70//7 67//5 68//5
f 72//8 69//7 70//7
f 66//6 71//8 72//8
f 76//7 73//8 74//8
f 78//7 75//7 76//7
f 80//7 77//7 78//7
f 82//5 79//7 80//7
f 84//5 81//5 82//5
f 86//7 83//5 84//5
f 88//7 85//7 86//7
f 90//5 87//7 88//7
f 92//5 89//5 90//5
f 94//5 91//5 92//5
f 96//6 93//5 94//5
f 98//6 95//6 96//6
f 100//6 97//6 98//6
f 102//8 99//6 100//6
f 104//8 101//8 102//8
f 106//6 103//8 104//8
f 108//6 105//6 106//6
f 110//8 107//6 108//6
f 112//8 109//8 110//8
f 74//8 111//8 112//8
f 60//5 59//5 57//6
f 62//7 61//7 59//5
f 64//8 63//8 61//7
f 58//6 57//6 63//8
f 68//5 67//5 65//6
f 70//7 69//7 67//5
f 72//8 71//8 69//7
f 66//6 65//6 71//8
f 76//7 75//7 73//8
f 78//7 77//7 75//7
f 80//7 79//7 77//7
f 82//5 81//5 79//7
f 84//5 83//5 81//5
f 86//7 85//7 83//5
f 88//7 87//7 85//7
f 90//5 89//5 87//7
f 92//5 91//5 89//5
f 94//5 93//5 91//5
f 96//6 95//6 93//5
f 98//6 97//6 95//6
f 100//6 99//6 97//6
f 102//8 101//8 99//6
f 104//8 103//8 101//8
f 106//6 105//6 103//8
f 108//6 107//6 105//6
f 110//8 109//8 107//6
f 112//8 111//8 109//8
f 74//8 73//8 111//8
