# Blender v2.78 (sub 0) OBJ File: ''
# www.blender.org
mtllib num_1.mtl
o Text
v 0.119431 0.150000 -0.631579
v 0.382589 0.150000 -0.789474
v 0.119431 0.150000 -0.789474
v 0.382589 0.150000 -0.736842
v 0.435220 0.150000 -0.736842
v 0.277326 0.150000 -0.631579
v 0.435220 0.150000 0.000000
v 0.277326 0.150000 0.000000
v 0.382589 -0.150000 -0.789474
v 0.119431 -0.150000 -0.631579
v 0.119431 -0.150000 -0.789474
v 0.382589 -0.150000 -0.736842
v 0.435220 -0.150000 -0.736842
v 0.277326 -0.150000 -0.631579
v 0.435220 -0.150000 -0.000000
v 0.277326 -0.150000 -0.000000
v 0.277326 0.150000 0.000000
v 0.435220 -0.150000 -0.000000
v 0.435220 0.150000 0.000000
v 0.277326 0.150000 -0.631579
v 0.277326 -0.150000 -0.000000
v 0.119431 0.150000 -0.631579
v 0.277326 -0.150000 -0.631579
v 0.119431 0.150000 -0.789474
v 0.119431 -0.150000 -0.631579
v 0.382589 0.150000 -0.789474
v 0.119431 -0.150000 -0.789474
v 0.382589 0.150000 -0.736842
v 0.382589 -0.150000 -0.789474
v 0.435220 0.150000 -0.736842
v 0.382589 -0.150000 -0.736842
v 0.435220 -0.150000 -0.736842
vn 0.0000 1.0000 0.0000
vn 0.0000 -1.0000 -0.0000
vn -0.7071 -0.0000 0.7071
vn 0.7071 0.0000 0.7071
vn -0.7071 0.0000 -0.7071
vn 0.7071 0.0000 -0.7071
usemtl None
s off
f 1//1 2//1 3//1
f 1//1 4//1 2//1
f 1//1 5//1 4//1
f 1//1 6//1 5//1
f 6//1 7//1 5//1
f 8//1 7//1 6//1
f 9//2 10//2 11//2
f 12//2 10//2 9//2
f 13//2 10//2 12//2
f 14//2 10//2 13//2
f 15//2 14//2 13//2
f 15//2 16//2 14//2
s 1
f 17//3 18//4 19//4
f 20//3 21//3 17//3
f 22//3 23//3 20//3
f 24//5 25//3 22//3
f 26//6 27//5 24//5
f 28//6 29//6 26//6
f 30//6 31//6 28//6
f 19//4 32//6 30//6
f 17//3 21//3 18//4
f 20//3 23//3 21//3
f 22//3 25//3 23//3
f 24//5 27//5 25//3
f 26//6 29//6 27//5
f 28//6 31//6 29//6
f 30//6 32//6 31//6
f 19//4 18//4 32//6
