# Blender v2.78 (sub 0) OBJ File: ''
# www.blender.org
mtllib num_5.mtl
o Text
v 0.526316 0.150000 0.000000
v 0.052632 0.150000 0.000000
v 0.052632 0.150000 -0.052632
v 0.000000 0.150000 -0.052632
v 0.000000 0.150000 -0.210526
v 0.157895 0.150000 -0.210526
v 0.157895 0.150000 -0.157895
v 0.421053 0.150000 -0.157895
v 0.421053 0.150000 -0.315789
v 0.052632 0.150000 -0.315789
v 0.052632 0.150000 -0.368421
v 0.000000 0.150000 -0.368421
v 0.000000 0.150000 -0.789474
v 0.578947 0.150000 -0.789474
v 0.578947 0.150000 -0.631579
v 0.157895 0.150000 -0.631579
v 0.157895 0.150000 -0.473684
v 0.526316 0.150000 -0.473684
v 0.526316 0.150000 -0.421053
v 0.578947 0.150000 -0.421053
v 0.578947 0.150000 -0.052632
v 0.526316 0.150000 -0.052632
v 0.526316 -0.150000 0.000000
v 0.052632 -0.150000 0.000000
v 0.052632 -0.150000 -0.052632
v 0.000000 -0.150000 -0.052632
v 0.000000 -0.150000 -0.210526
v 0.157895 -0.150000 -0.210526
v 0.157895 -0.150000 -0.157895
v 0.421053 -0.150000 -0.157895
v 0.421053 -0.150000 -0.315789
v 0.052632 -0.150000 -0.315789
v 0.052632 -0.150000 -0.368421
v 0.000000 -0.150000 -0.368421
v 0.000000 -0.150000 -0.789474
v 0.578947 -0.150000 -0.789474
v 0.578947 -0.150000 -0.631579
v 0.157895 -0.150000 -0.631579
v 0.157895 -0.150000 -0.473684
v 0.526316 -0.150000 -0.473684
v 0.526316 -0.150000 -0.421053
v 0.578947 -0.150000 -0.421053
v 0.578947 -0.150000 -0.052632
v 0.526316 -0.150000 -0.052632
v 0.526316 -0.150000 0.000000
v 0.526316 0.150000 0.000000
v 0.052632 -0.150000 0.000000
v 0.052632 0.150000 0.000000
v 0.052632 -0.150000 -0.052632
v 0.052632 0.150000 -0.052632
v 0.000000 -0.150000 -0.052632
v 0.000000 0.150000 -0.052632
v 0.000000 -0.150000 -0.210526
v 0.000000 0.150000 -0.210526
v 0.157895 -0.150000 -0.210526
v 0.157895 0.150000 -0.210526
v 0.157895 -0.150000 -0.157895
v 0.157895 0.150000 -0.157895
v 0.421053 -0.150000 -0.157895
v 0.421053 0.150000 -0.157895
v 0.421053 -0.150000 -0.315789
v 0.421053 0.150000 -0.315789
v 0.052632 -0.150000 -0.315789
v 0.052632 0.150000 -0.315789
v 0.052632 -0.150000 -0.368421
v 0.052632 0.150000 -0.368421
v 0.000000 -0.150000 -0.368421
v 0.000000 0.150000 -0.368421
v 0.000000 -0.150000 -0.789474
v 0.000000 0.150000 -0.789474
v 0.578947 -0.150000 -0.789474
v 0.578947 0.150000 -0.789474
v 0.578947 -0.150000 -0.631579
v 0.578947 0.150000 -0.631579
v 0.157895 -0.150000 -0.631579
v 0.157895 0.150000 -0.631579
v 0.157895 -0.150000 -0.473684
v 0.157895 0.150000 -0.473684
v 0.526316 -0.150000 -0.473684
v 0.526316 0.150000 -0.473684
v 0.526316 -0.150000 -0.421053
v 0.526316 0.150000 -0.421053
v 0.578947 -0.150000 -0.421053
v 0.578947 0.150000 -0.421053
v 0.578947 -0.150000 -0.052632
v 0.578947 0.150000 -0.052632
v 0.526316 -0.150000 -0.052632
v 0.526316 0.150000 -0.052632
vn 0.0000 1.0000 0.0000
vn 0.0000 0.0000 -1.0000
vn 0.0000 0.0000 1.0000
vn 0.0000 -1.0000 0.0000
vn -0.7071 0.0000 0.7071
vn 0.7071 0.0000 0.7071
vn -0.7071 0.0000 -0.7071
vn 0.7071 0.0000 -0.7071
usemtl None
s off
f 12//1 16//1 13//1
f 16//1 14//1 13//1
f 16//1 15//1 14//1
f 12//1 17//1 16//1
f 12//1 18//1 17//1
f 12//1 19//1 18//1
f 12//1 20//1 19//1
f 12//1 11//1 20//1
f 11//1 9//1 20//1
f 9//1 21//1 20//1
f 10//1 9//1 11//1
f 8//1 21//1 9//1
f 4//1 6//1 5//1
f 4//1 7//1 6//1
f 4//1 8//1 7//1
f 4//1 21//1 8//1
f 3//2 21//2 4//2
f 2//1 22//1 3//1
f 22//3 21//3 3//3
f 2//1 1//1 22//1
f 38//4 34//4 35//4
f 36//4 38//4 35//4
f 37//4 38//4 36//4
f 39//4 34//4 38//4
f 40//4 34//4 39//4
f 41//4 34//4 40//4
f 42//4 34//4 41//4
f 33//4 34//4 42//4
f 31//4 33//4 42//4
f 43//4 31//4 42//4
f 31//4 32//4 33//4
f 43//4 30//4 31//4
f 28//4 26//4 27//4
f 29//4 26//4 28//4
f 30//4 26//4 29//4
f 43//4 26//4 30//4
f 43//2 25//2 26//2
f 44//4 24//4 25//4
f 43//3 44//3 25//3
f 23//4 24//4 44//4
s 1
f 48//5 45//6 46//6
f 50//5 47//5 48//5
f 52//5 49//5 50//5
f 54//7 51//5 52//5
f 56//8 53//7 54//7
f 58//8 55//8 56//8
f 60//7 57//8 58//8
f 62//5 59//7 60//7
f 64//5 61//5 62//5
f 66//5 63//5 64//5
f 68//5 65//5 66//5
f 70//7 67//5 68//5
f 72//8 69//7 70//7
f 74//6 71//8 72//8
f 76//6 73//6 74//6
f 78//8 75//6 76//6
f 80//8 77//8 78//8
f 82//8 79//8 80//8
f 84//8 81//8 82//8
f 86//6 83//8 84//8
f 88//6 85//6 86//6
f 46//6 87//6 88//6
f 48//5 47//5 45//6
f 50//5 49//5 47//5
f 52//5 51//5 49//5
f 54//7 53//7 51//5
f 56//8 55//8 53//7
f 58//8 57//8 55//8
f 60//7 59//7 57//8
f 62//5 61//5 59//7
f 64//5 63//5 61//5
f 66//5 65//5 63//5
f 68//5 67//5 65//5
f 70//7 69//7 67//5
f 72//8 71//8 69//7
f 74//6 73//6 71//8
f 76//6 75//6 73//6
f 78//8 77//8 75//6
f 80//8 79//8 77//8
f 82//8 81//8 79//8
f 84//8 83//8 81//8
f 86//6 85//6 83//8
f 88//6 87//6 85//6
f 46//6 45//6 87//6
