# Blender v2.78 (sub 0) OBJ File: ''
# www.blender.org
mtllib num_9.mtl
o Text
v 0.157895 0.150000 -0.473684
v 0.421053 0.150000 -0.473684
v 0.421053 0.150000 -0.631579
v 0.157895 0.150000 -0.631579
v 0.578947 0.150000 0.000000
v 0.421053 0.150000 0.000000
v 0.421053 0.150000 -0.315789
v 0.052632 0.150000 -0.315789
v 0.052632 0.150000 -0.368421
v 0.000000 0.150000 -0.368421
v 0.000000 0.150000 -0.736842
v 0.052632 0.150000 -0.736842
v 0.052632 0.150000 -0.789474
v 0.526316 0.150000 -0.789474
v 0.526316 0.150000 -0.736842
v 0.578947 0.150000 -0.736842
v 0.157895 -0.150000 -0.473684
v 0.421053 -0.150000 -0.473684
v 0.421053 -0.150000 -0.631579
v 0.157895 -0.150000 -0.631579
v 0.578947 -0.150000 0.000000
v 0.421053 -0.150000 0.000000
v 0.421053 -0.150000 -0.315789
v 0.052632 -0.150000 -0.315789
v 0.052632 -0.150000 -0.368421
v 0.000000 -0.150000 -0.368421
v 0.000000 -0.150000 -0.736842
v 0.052632 -0.150000 -0.736842
v 0.052632 -0.150000 -0.789474
v 0.526316 -0.150000 -0.789474
v 0.526316 -0.150000 -0.736842
v 0.578947 -0.150000 -0.736842
v 0.157895 -0.150000 -0.473684
v 0.157895 0.150000 -0.473684
v 0.421053 -0.150000 -0.473684
v 0.421053 0.150000 -0.473684
v 0.421053 -0.150000 -0.631579
v 0.421053 0.150000 -0.631579
v 0.157895 -0.150000 -0.631579
v 0.157895 0.150000 -0.631579
v 0.578947 -0.150000 0.000000
v 0.578947 0.150000 0.000000
v 0.421053 -0.150000 0.000000
v 0.421053 0.150000 0.000000
v 0.421053 -0.150000 -0.315789
v 0.421053 0.150000 -0.315789
v 0.052632 -0.150000 -0.315789
v 0.052632 0.150000 -0.315789
v 0.052632 -0.150000 -0.368421
v 0.052632 0.150000 -0.368421
v 0.000000 -0.150000 -0.368421
v 0.000000 0.150000 -0.368421
v 0.000000 -0.150000 -0.736842
v 0.000000 0.150000 -0.736842
v 0.052632 -0.150000 -0.736842
v 0.052632 0.150000 -0.736842
v 0.052632 -0.150000 -0.789474
v 0.052632 0.150000 -0.789474
v 0.526316 -0.150000 -0.789474
v 0.526316 0.150000 -0.789474
v 0.526316 -0.150000 -0.736842
v 0.526316 0.150000 -0.736842
v 0.578947 -0.150000 -0.736842
v 0.578947 0.150000 -0.736842
vn 0.0000 1.0000 0.0000
vn 0.0000 -1.0000 0.0000
vn -0.7071 0.0000 -0.7071
vn 0.7071 0.0000 -0.7071
vn -0.7071 0.0000 0.7071
vn 0.7071 0.0000 0.7071
usemtl None
s off
f 12//1 14//1 13//1
f 12//1 15//1 14//1
f 10//1 12//1 11//1
f 10//1 4//1 12//1
f 4//1 15//1 12//1
f 4//1 16//1 15//1
f 4//1 3//1 16//1
f 3//1 5//1 16//1
f 10//1 1//1 4//1
f 2//1 5//1 3//1
f 10//1 2//1 1//1
f 10//1 9//1 2//1
f 9//1 7//1 2//1
f 7//1 5//1 2//1
f 8//1 7//1 9//1
f 6//1 5//1 7//1
f 30//2 28//2 29//2
f 31//2 28//2 30//2
f 28//2 26//2 27//2
f 20//2 26//2 28//2
f 31//2 20//2 28//2
f 32//2 20//2 31//2
f 19//2 20//2 32//2
f 21//2 19//2 32//2
f 17//2 26//2 20//2
f 21//2 18//2 19//2
f 18//2 26//2 17//2
f 25//2 26//2 18//2
f 23//2 25//2 18//2
f 21//2 23//2 18//2
f 23//2 24//2 25//2
f 21//2 22//2 23//2
s 1
f 36//3 33//4 34//4
f 38//5 35//3 36//3
f 40//6 37//5 38//5
f 34//4 39//6 40//6
f 44//5 41//6 42//6
f 46//5 43//5 44//5
f 48//5 45//5 46//5
f 50//5 47//5 48//5
f 52//5 49//5 50//5
f 54//3 51//5 52//5
f 56//3 53//3 54//3
f 58//3 55//3 56//3
f 60//4 57//3 58//3
f 62//4 59//4 60//4
f 64//4 61//4 62//4
f 42//6 63//4 64//4
f 36//3 35//3 33//4
f 38//5 37//5 35//3
f 40//6 39//6 37//5
f 34//4 33//4 39//6
f 44//5 43//5 41//6
f 46//5 45//5 43//5
f 48//5 47//5 45//5
f 50//5 49//5 47//5
f 52//5 51//5 49//5
f 54//3 53//3 51//5
f 56//3 55//3 53//3
f 58//3 57//3 55//3
f 60//4 59//4 57//3
f 62//4 61//4 59//4
f 64//4 63//4 61//4
f 42//6 41//6 63//4
