# Blender v2.78 (sub 0) OBJ File: ''
# www.blender.org
mtllib num_0.mtl
o Text
v 0.157895 0.150000 -0.157895
v 0.421053 0.150000 -0.157895
v 0.421053 0.150000 -0.631579
v 0.157895 0.150000 -0.631579
v 0.526316 0.150000 0.000000
v 0.052632 0.150000 0.000000
v 0.052632 0.150000 -0.052632
v 0.000000 0.150000 -0.052632
v 0.000000 0.150000 -0.736842
v 0.052632 0.150000 -0.736842
v 0.052632 0.150000 -0.789474
v 0.526316 0.150000 -0.789474
v 0.526316 0.150000 -0.736842
v 0.578947 0.150000 -0.736842
v 0.578947 0.150000 -0.052632
v 0.526316 0.150000 -0.052632
v 0.157895 -0.150000 -0.157895
v 0.421053 -0.150000 -0.157895
v 0.421053 -0.150000 -0.631579
v 0.157895 -0.150000 -0.631579
v 0.526316 -0.150000 0.000000
v 0.052632 -0.150000 0.000000
v 0.052632 -0.150000 -0.052632
v 0.000000 -0.150000 -0.052632
v 0.000000 -0.150000 -0.736842
v 0.052632 -0.150000 -0.736842
v 0.052632 -0.150000 -0.789474
v 0.526316 -0.150000 -0.789474
v 0.526316 -0.150000 -0.736842
v 0.578947 -0.150000 -0.736842
v 0.578947 -0.150000 -0.052632
v 0.526316 -0.150000 -0.052632
v 0.157895 -0.150000 -0.157895
v 0.157895 0.150000 -0.157895
v 0.421053 -0.150000 -0.157895
v 0.421053 0.150000 -0.157895
v 0.421053 -0.150000 -0.631579
v 0.421053 0.150000 -0.631579
v 0.157895 -0.150000 -0.631579
v 0.157895 0.150000 -0.631579
v 0.526316 -0.150000 0.000000
v 0.526316 0.150000 0.000000
v 0.052632 -0.150000 0.000000
v 0.052632 0.150000 0.000000
v 0.052632 -0.150000 -0.052632
v 0.052632 0.150000 -0.052632
v 0.000000 -0.150000 -0.052632
v 0.000000 0.150000 -0.052632
v 0.000000 -0.150000 -0.736842
v 0.000000 0.150000 -0.736842
v 0.052632 -0.150000 -0.736842
v 0.052632 0.150000 -0.736842
v 0.052632 -0.150000 -0.789474
v 0.052632 0.150000 -0.789474
v 0.526316 -0.150000 -0.789474
v 0.526316 0.150000 -0.789474
v 0.526316 -0.150000 -0.736842
v 0.526316 0.150000 -0.736842
v 0.578947 -0.150000 -0.736842
v 0.578947 0.150000 -0.736842
v 0.578947 -0.150000 -0.052632
v 0.578947 0.150000 -0.052632
v 0.526316 -0.150000 -0.052632
v 0.526316 0.150000 -0.052632
vn 0.0000 1.0000 0.0000
vn 0.0000 0.0000 -1.0000
vn 0.0000 0.0000 1.0000
vn 0.0000 -1.0000 0.0000
vn -0.7071 0.0000 -0.7071
vn 0.7071 0.0000 -0.7071
vn -0.7071 0.0000 0.7071
vn 0.7071 0.0000 0.7071
usemtl None
s off
f 10//1 12//1 11//1
f 10//1 13//1 12//1
f 8//1 10//1 9//1
f 8//1 4//1 10//1
f 4//1 13//1 10//1
f 4//1 14//1 13//1
f 4//1 3//1 14//1
f 3//1 15//1 14//1
f 8//1 1//1 4//1
f 2//1 15//1 3//1
f 8//1 2//1 1//1
f 8//1 15//1 2//1
f 7//2 15//2 8//2
f 6//1 16//1 7//1
f 16//3 15//3 7//3
f 6//1 5//1 16//1
f 28//4 26//4 27//4
f 29//4 26//4 28//4
f 26//4 24//4 25//4
f 20//4 24//4 26//4
f 29//4 20//4 26//4
f 30//4 20//4 29//4
f 19//4 20//4 30//4
f 31//4 19//4 30//4
f 17//4 24//4 20//4
f 31//4 18//4 19//4
f 18//4 24//4 17//4
f 31//4 24//4 18//4
f 31//2 23//2 24//2
f 32//4 22//4 23//4
f 31//3 32//3 23//3
f 21//4 22//4 32//4
s 1
f 36//5 33//6 34//6
f 38//7 35//5 36//5
f 40//8 37//7 38//7
f 34//6 39//8 40//8
f 44//7 41//8 42//8
f 46//7 43//7 44//7
f 48//7 45//7 46//7
f 50//5 47//7 48//7
f 52//5 49//5 50//5
f 54//5 51//5 52//5
f 56//6 53//5 54//5
f 58//6 55//6 56//6
f 60//6 57//6 58//6
f 62//8 59//6 60//6
f 64//8 61//8 62//8
f 42//8 63//8 64//8
f 36//5 35//5 33//6
f 38//7 37//7 35//5
f 40//8 39//8 37//7
f 34//6 33//6 39//8
f 44//7 43//7 41//8
f 46//7 45//7 43//7
f 48//7 47//7 45//7
f 50//5 49//5 47//7
f 52//5 51//5 49//5
f 54//5 53//5 51//5
f 56//6 55//6 53//5
f 58//6 57//6 55//6
f 60//6 59//6 57//6
f 62//8 61//8 59//6
f 64//8 63//8 61//8
f 42//8 41//8 63//8
