# Blender v2.78 (sub 0) OBJ File: ''
# www.blender.org
mtllib quit.mtl
o Text
v 0.842105 0.150000 0.000000
v 0.684211 0.150000 0.000000
v 0.684211 0.150000 -0.631579
v 0.473684 0.150000 -0.631579
v 0.473684 0.150000 -0.789474
v 1.052632 0.150000 -0.789474
v 1.052632 0.150000 -0.631579
v 0.842105 0.150000 -0.631579
v 0.421053 0.150000 0.000000
v 0.263158 0.150000 0.000000
v 0.263158 0.150000 -0.789474
v 0.421053 0.150000 -0.789474
v 0.157895 0.150000 0.000000
v -0.315790 0.150000 0.000000
v -0.315790 0.150000 -0.052632
v -0.368421 0.150000 -0.052632
v -0.368421 0.150000 -0.789474
v -0.210526 0.150000 -0.789474
v -0.210526 0.150000 -0.157895
v 0.052632 0.150000 -0.157895
v 0.052632 0.150000 -0.789474
v 0.210526 0.150000 -0.789474
v 0.210526 0.150000 -0.052632
v 0.157895 0.150000 -0.052632
v -0.631579 0.150000 -0.157895
v -0.578947 0.150000 -0.157895
v -0.578947 0.150000 -0.631579
v -0.842105 0.150000 -0.631579
v -0.842105 0.150000 -0.157895
v -0.789474 0.150000 -0.157895
v -0.789474 0.150000 -0.263158
v -0.684211 0.150000 -0.263158
v -0.684211 0.150000 -0.210526
v -0.631579 0.150000 -0.210526
v -0.631579 0.150000 0.105263
v -0.736842 0.150000 0.105263
v -0.736842 0.150000 0.052632
v -0.789474 0.150000 0.052632
v -0.789474 0.150000 0.000000
v -0.947368 0.150000 0.000000
v -0.947368 0.150000 -0.052632
v -1.000000 0.150000 -0.052632
v -1.000000 0.150000 -0.736842
v -0.947368 0.150000 -0.736842
v -0.947368 0.150000 -0.789474
v -0.473684 0.150000 -0.789474
v -0.473684 0.150000 -0.736842
v -0.421053 0.150000 -0.736842
v -0.421053 0.150000 -0.052632
v -0.473684 0.150000 -0.052632
v -0.473684 0.150000 0.000000
v -0.631579 0.150000 0.000000
v 0.842105 -0.150000 0.000000
v 0.684211 -0.150000 0.000000
v 0.684211 -0.150000 -0.631579
v 0.473684 -0.150000 -0.631579
v 0.473684 -0.150000 -0.789474
v 1.052632 -0.150000 -0.789474
v 1.052632 -0.150000 -0.631579
v 0.842105 -0.150000 -0.631579
v 0.421053 -0.150000 0.000000
v 0.263158 -0.150000 0.000000
v 0.263158 -0.150000 -0.789474
v 0.421053 -0.150000 -0.789474
v 0.157895 -0.150000 0.000000
v -0.315790 -0.150000 0.000000
v -0.315790 -0.150000 -0.052632
v -0.368421 -0.150000 -0.052632
v -0.368421 -0.150000 -0.789474
v -0.210526 -0.150000 -0.789474
v -0.210526 -0.150000 -0.157895
v 0.052632 -0.150000 -0.157895
v 0.052632 -0.150000 -0.789474
v 0.210526 -0.150000 -0.789474
v 0.210526 -0.150000 -0.052632
v 0.157895 -0.150000 -0.052632
v -0.631579 -0.150000 -0.157895
v -0.578947 -0.150000 -0.157895
v -0.578947 -0.150000 -0.631579
v -0.842105 -0.150000 -0.631579
v -0.842105 -0.150000 -0.157895
v -0.789474 -0.150000 -0.157895
v -0.789474 -0.150000 -0.263158
v -0.684211 -0.150000 -0.263158
v -0.684211 -0.150000 -0.210526
v -0.631579 -0.150000 -0.210526
v -0.631579 -0.150000 0.105263
v -0.736842 -0.150000 0.105263
v -0.736842 -0.150000 0.052632
v -0.789474 -0.150000 0.052632
v -0.789474 -0.150000 0.000000
v -0.947368 -0.150000 0.000000
v -0.947368 -0.150000 -0.052632
v -1.000000 -0.150000 -0.052632
v -1.000000 -0.150000 -0.736842
v -0.947368 -0.150000 -0.736842
v -0.947368 -0.150000 -0.789474
v -0.473684 -0.150000 -0.789474
v -0.473684 -0.150000 -0.736842
v -0.421053 -0.150000 -0.736842
v -0.421053 -0.150000 -0.052632
v -0.473684 -0.150000 -0.052632
v -0.473684 -0.150000 0.000000
v -0.631579 -0.150000 0.000000
v -0.631579 -0.150000 -0.157895
v -0.631579 0.150000 -0.157895
v -0.578947 -0.150000 -0.157895
v -0.578947 0.150000 -0.157895
v -0.578947 -0.150000 -0.631579
v -0.578947 0.150000 -0.631579
v -0.842105 -0.150000 -0.631579
v -0.842105 0.150000 -0.631579
v -0.842105 -0.150000 -0.157895
v -0.842105 0.150000 -0.157895
v -0.789474 -0.150000 -0.157895
v -0.789474 0.150000 -0.157895
v -0.789474 -0.150000 -0.263158
v -0.789474 0.150000 -0.263158
v -0.684211 -0.150000 -0.263158
v -0.684211 0.150000 -0.263158
v -0.684211 -0.150000 -0.210526
v -0.684211 0.150000 -0.210526
v -0.631579 -0.150000 -0.210526
v -0.631579 0.150000 -0.210526
v -0.631579 -0.150000 0.105263
v -0.631579 0.150000 0.105263
v -0.736842 -0.150000 0.105263
v -0.736842 0.150000 0.105263
v -0.736842 -0.150000 0.052632
v -0.736842 0.150000 0.052632
v -0.789474 -0.150000 0.052632
v -0.789474 0.150000 0.052632
v -0.789474 -0.150000 0.000000
v -0.789474 0.150000 0.000000
v -0.947368 -0.150000 0.000000
v -0.947368 0.150000 0.000000
v -0.947368 -0.150000 -0.052632
v -0.947368 0.150000 -0.052632
v -1.000000 -0.150000 -0.052632
v -1.000000 0.150000 -0.052632
v -1.000000 -0.150000 -0.736842
v -1.000000 0.150000 -0.736842
v -0.947368 -0.150000 -0.736842
v -0.947368 0.150000 -0.736842
v -0.947368 -0.150000 -0.789474
v -0.947368 0.150000 -0.789474
v -0.473684 -0.150000 -0.789474
v -0.473684 0.150000 -0.789474
v -0.473684 -0.150000 -0.736842
v -0.473684 0.150000 -0.736842
v -0.421053 -0.150000 -0.736842
v -0.421053 0.150000 -0.736842
v -0.421053 -0.150000 -0.052632
v -0.421053 0.150000 -0.052632
v -0.473684 -0.150000 -0.052632
v -0.473684 0.150000 -0.052632
v -0.473684 -0.150000 0.000000
v -0.473684 0.150000 0.000000
v -0.631579 -0.150000 0.000000
v -0.631579 0.150000 0.000000
v 0.157895 -0.150000 0.000000
v 0.157895 0.150000 0.000000
v -0.315790 -0.150000 0.000000
v -0.315790 0.150000 0.000000
v -0.315790 -0.150000 -0.052632
v -0.315790 0.150000 -0.052632
v -0.368421 -0.150000 -0.052632
v -0.368421 0.150000 -0.052632
v -0.368421 -0.150000 -0.789474
v -0.368421 0.150000 -0.789474
v -0.210526 -0.150000 -0.789474
v -0.210526 0.150000 -0.789474
v -0.210526 -0.150000 -0.157895
v -0.210526 0.150000 -0.157895
v 0.052632 -0.150000 -0.157895
v 0.052632 0.150000 -0.157895
v 0.052632 -0.150000 -0.789474
v 0.052632 0.150000 -0.789474
v 0.210526 -0.150000 -0.789474
v 0.210526 0.150000 -0.789474
v 0.210526 -0.150000 -0.052632
v 0.210526 0.150000 -0.052632
v 0.157895 -0.150000 -0.052632
v 0.157895 0.150000 -0.052632
v 0.421053 -0.150000 0.000000
v 0.421053 0.150000 0.000000
v 0.263158 -0.150000 0.000000
v 0.263158 0.150000 0.000000
v 0.263158 -0.150000 -0.789474
v 0.263158 0.150000 -0.789474
v 0.421053 -0.150000 -0.789474
v 0.421053 0.150000 -0.789474
v 0.842105 -0.150000 0.000000
v 0.842105 0.150000 0.000000
v 0.684211 -0.150000 0.000000
v 0.684211 0.150000 0.000000
v 0.684211 -0.150000 -0.631579
v 0.684211 0.150000 -0.631579
v 0.473684 -0.150000 -0.631579
v 0.473684 0.150000 -0.631579
v 0.473684 -0.150000 -0.789474
v 0.473684 0.150000 -0.789474
v 1.052632 -0.150000 -0.789474
v 1.052632 0.150000 -0.789474
v 1.052632 -0.150000 -0.631579
v 1.052632 0.150000 -0.631579
v 0.842105 -0.150000 -0.631579
v 0.842105 0.150000 -0.631579
vn 0.0000 1.0000 0.0000
vn 0.0000 0.0000 1.0000
vn 0.0000 -1.0000 0.0000
vn 0.0000 0.0000 -1.0000
vn -0.7071 0.0000 -0.7071
vn 0.7071 0.0000 -0.7071
vn -0.7071 0.0000 0.7071
vn 0.7071 0.0000 0.7071
usemtl None
s off
f 4//1 6//1 5//1
f 4//1 7//1 6//1
f 3//2 7//2 4//2
f 2//1 8//1 3//1
f 8//2 7//2 3//2
f 2//1 1//1 8//1
f 10//1 12//1 11//1
f 10//1 9//1 12//1
f 16//1 18//1 17//1
f 16//1 19//1 18//1
f 20//1 22//1 21//1
f 20//1 23//1 22//1
f 16//1 20//1 19//1
f 16//1 23//1 20//1
f 15//2 23//2 16//2
f 14//1 24//1 15//1
f 24//2 23//2 15//2
f 14//1 13//1 24//1
f 44//1 46//1 45//1
f 44//1 47//1 46//1
f 42//1 44//1 43//1
f 42//1 28//1 44//1
f 28//1 47//1 44//1
f 28//1 48//1 47//1
f 28//1 27//1 48//1
f 27//1 49//1 48//1
f 42//1 29//1 28//1
f 26//1 49//1 27//1
f 30//1 32//1 31//1
f 30//1 33//1 32//1
f 30//1 34//1 33//1
f 30//1 25//1 34//1
f 42//1 30//1 29//1
f 42//1 25//1 30//1
f 42//1 26//1 25//1
f 42//1 49//1 26//1
f 41//2 49//2 42//2
f 40//1 50//1 41//1
f 50//2 49//2 41//2
f 40//1 51//1 50//1
f 39//2 51//2 40//2
f 38//1 52//1 39//1
f 52//2 51//2 39//2
f 38//1 37//1 52//1
f 37//1 35//1 52//1
f 36//1 35//1 37//1
f 58//3 56//3 57//3
f 59//3 56//3 58//3
f 59//2 55//2 56//2
f 60//3 54//3 55//3
f 59//2 60//2 55//2
f 53//3 54//3 60//3
f 64//3 62//3 63//3
f 61//3 62//3 64//3
f 70//3 68//3 69//3
f 71//3 68//3 70//3
f 74//3 72//3 73//3
f 75//3 72//3 74//3
f 72//3 68//3 71//3
f 75//3 68//3 72//3
f 75//4 67//4 68//4
f 76//3 66//3 67//3
f 75//2 76//2 67//2
f 65//3 66//3 76//3
f 98//3 96//3 97//3
f 99//3 96//3 98//3
f 96//3 94//3 95//3
f 80//3 94//3 96//3
f 99//3 80//3 96//3
f 100//3 80//3 99//3
f 79//3 80//3 100//3
f 101//3 79//3 100//3
f 81//3 94//3 80//3
f 101//3 78//3 79//3
f 84//3 82//3 83//3
f 85//3 82//3 84//3
f 86//3 82//3 85//3
f 77//3 82//3 86//3
f 82//3 94//3 81//3
f 77//3 94//3 82//3
f 78//3 94//3 77//3
f 101//3 94//3 78//3
f 101//4 93//4 94//4
f 102//3 92//3 93//3
f 101//2 102//2 93//2
f 103//3 92//3 102//3
f 103//4 91//4 92//4
f 104//3 90//3 91//3
f 103//2 104//2 91//2
f 89//3 90//3 104//3
f 87//3 89//3 104//3
f 87//3 88//3 89//3
s 1
f 108//5 105//6 106//6
f 110//7 107//5 108//5
f 112//8 109//7 110//7
f 114//6 111//8 112//8
f 116//5 113//6 114//6
f 118//5 115//5 116//5
f 120//6 117//5 118//5
f 122//6 119//6 120//6
f 124//6 121//6 122//6
f 106//6 123//6 124//6
f 128//7 125//8 126//8
f 130//7 127//7 128//7
f 132//7 129//7 130//7
f 134//7 131//7 132//7
f 136//7 133//7 134//7
f 138//7 135//7 136//7
f 140//7 137//7 138//7
f 142//5 139//7 140//7
f 144//5 141//5 142//5
f 146//5 143//5 144//5
f 148//6 145//5 146//5
f 150//6 147//6 148//6
f 152//6 149//6 150//6
f 154//8 151//6 152//6
f 156//8 153//8 154//8
f 158//8 155//8 156//8
f 160//8 157//8 158//8
f 126//8 159//8 160//8
f 164//7 161//8 162//8
f 166//7 163//7 164//7
f 168//7 165//7 166//7
f 170//5 167//7 168//7
f 172//6 169//5 170//5
f 174//6 171//6 172//6
f 176//5 173//6 174//6
f 178//5 175//5 176//5
f 180//6 177//5 178//5
f 182//8 179//6 180//6
f 184//8 181//8 182//8
f 162//8 183//8 184//8
f 188//7 185//8 186//8
f 190//5 187//7 188//7
f 192//6 189//5 190//5
f 186//8 191//6 192//6
f 196//7 193//8 194//8
f 198//7 195//7 196//7
f 200//7 197//7 198//7
f 202//5 199//7 200//7
f 204//6 201//5 202//5
f 206//8 203//6 204//6
f 208//8 205//8 206//8
f 194//8 207//8 208//8
f 108//5 107//5 105//6
f 110//7 109//7 107//5
f 112//8 111//8 109//7
f 114//6 113//6 111//8
f 116//5 115//5 113//6
f 118//5 117//5 115//5
f 120//6 119//6 117//5
f 122//6 121//6 119//6
f 124//6 123//6 121//6
f 106//6 105//6 123//6
f 128//7 127//7 125//8
f 130//7 129//7 127//7
f 132//7 131//7 129//7
f 134//7 133//7 131//7
f 136//7 135//7 133//7
f 138//7 137//7 135//7
f 140//7 139//7 137//7
f 142//5 141//5 139//7
f 144//5 143//5 141//5
f 146//5 145//5 143//5
f 148//6 147//6 145//5
f 150//6 149//6 147//6
f 152//6 151//6 149//6
f 154//8 153//8 151//6
f 156//8 155//8 153//8
f 158//8 157//8 155//8
f 160//8 159//8 157//8
f 126//8 125//8 159//8
f 164//7 163//7 161//8
f 166//7 165//7 163//7
f 168//7 167//7 165//7
f 170//5 169//5 167//7
f 172//6 171//6 169//5
f 174//6 173//6 171//6
f 176//5 175//5 173//6
f 178//5 177//5 175//5
f 180//6 179//6 177//5
f 182//8 181//8 179//6
f 184//8 183//8 181//8
f 162//8 161//8 183//8
f 188//7 187//7 185//8
f 190//5 189//5 187//7
f 192//6 191//6 189//5
f 186//8 185//8 191//6
f 196//7 195//7 193//8
f 198//7 197//7 195//7
f 200//7 199//7 197//7
f 202//5 201//5 199//7
f 204//6 203//6 201//5
f 206//8 205//8 203//6
f 208//8 207//8 205//8
f 194//8 193//8 207//8
